<svg width="88" height="89" viewBox="0 0 88 89" fill="none" xmlns="http://www.w3.org/2000/svg">
<path d="M23.375 30.75H5.5C4.40598 30.75 3.35677 30.3154 2.58318 29.5418C1.8096 28.7682 1.375 27.719 1.375 26.625C1.375 25.531 1.8096 24.4818 2.58318 23.7082C3.35677 22.9346 4.40598 22.5 5.5 22.5H6.875V25.25H5.5C5.13533 25.25 4.78559 25.3949 4.52773 25.6527C4.26987 25.9106 4.125 26.2603 4.125 26.625C4.125 26.9897 4.26987 27.3394 4.52773 27.5973C4.78559 27.8551 5.13533 28 5.5 28H23.375V30.75Z" fill="#98DAF4"/>
<path d="M26.4303 21.2776L24.7087 20.4169C23.8314 19.9782 22.864 19.7498 21.8831 19.75C21.1849 19.7504 20.5154 20.0279 20.0216 20.5216C19.5279 21.0154 19.2504 21.6849 19.25 22.3831C19.25 22.838 19.3677 23.2852 19.5918 23.6811C19.8159 24.077 20.1387 24.4081 20.5288 24.6422L24.0048 26.7281L28.875 26.625L26.4303 21.2776Z" fill="#4C94BF"/>
<path d="M55.924 74.75C54.9011 72.5898 54.7185 70.1262 55.4119 67.8388C56.1052 65.5514 57.6248 63.6037 59.675 62.375C58.447 61.6436 57.3983 60.6464 56.6059 59.4568C55.8136 58.2671 55.2978 56.9151 55.0963 55.5H27.5C24.9473 55.5 22.4991 56.5141 20.6941 58.3191C18.8891 60.1241 17.875 62.5723 17.875 65.125C17.875 67.6777 18.8891 70.1259 20.6941 71.9309C22.4991 73.7359 24.9473 74.75 27.5 74.75H55.924Z" fill="#5A361F"/>
<path d="M22 65.125C22 67.6777 23.0141 70.1259 24.8191 71.9309C26.6241 73.7359 29.0723 74.75 31.625 74.75H55.924C54.9011 72.5898 54.7185 70.1262 55.4119 67.8388C56.1052 65.5514 57.6248 63.6037 59.675 62.375C58.447 61.6436 57.3983 60.6464 56.6059 59.4568C55.8136 58.2671 55.2978 56.9151 55.0963 55.5H31.625C29.0723 55.5 26.6241 56.5141 24.8191 58.3191C23.0141 60.1241 22 62.5723 22 65.125Z" fill="#6B412A"/>
<path d="M55 54.125C54.9969 54.5851 55.0291 55.0448 55.0963 55.5H12.375C12.375 50.7593 14.2583 46.2127 17.6105 42.8605C20.9627 39.5083 25.5093 37.625 30.25 37.625H55C54.9977 39.2873 55.4274 40.9217 56.2469 42.368C57.0665 43.8143 58.2478 45.0228 59.675 45.875C58.2478 46.7273 57.0665 47.9357 56.2469 49.382C55.4274 50.8283 54.9977 52.4627 55 54.125Z" fill="#B26E56"/>
<path d="M55.924 74.75C56.527 76.0191 57.4005 77.1409 58.4832 78.0364C59.5659 78.9319 60.8315 79.5795 62.1912 79.9338C62.8012 82.2828 64.2805 84.3126 66.33 85.6125C65.7666 85.7066 65.1962 85.7526 64.625 85.75H23.375C21.9299 85.752 20.4986 85.4688 19.1631 84.9167C17.8277 84.3646 16.6142 83.5545 15.5924 82.5326C14.5706 81.5108 13.7604 80.2974 13.2083 78.9619C12.6562 77.6264 12.373 76.1951 12.375 74.75H55.9212" fill="#B26E56"/>
<path d="M24.75 32.125H30.25C31.7688 32.125 33 30.8938 33 29.375C33 27.8562 31.7688 26.625 30.25 26.625H24.75C23.2312 26.625 22 27.8562 22 29.375C22 30.8938 23.2312 32.125 24.75 32.125Z" fill="#9A9B9F"/>
<path d="M30.25 26.625L31.5769 19.9934C31.6087 19.8317 31.6248 19.6673 31.625 19.5025C31.625 18.8388 31.3613 18.2023 30.892 17.733C30.4227 17.2637 29.7862 17 29.1225 17H28.6275C27.9638 17 27.3273 17.2637 26.858 17.733C26.3887 18.2023 26.125 18.8388 26.125 19.5025C26.1252 19.6673 26.1413 19.8317 26.1731 19.9934L27.5 26.625" fill="#6FB9DD"/>
<path d="M82.5 17H59.125V14.25H82.5C82.8647 14.25 83.2144 14.1051 83.4723 13.8473C83.7301 13.5894 83.875 13.2397 83.875 12.875C83.875 12.5103 83.7301 12.1606 83.4723 11.9027C83.2144 11.6449 82.8647 11.5 82.5 11.5H81.125V8.75H82.5C83.594 8.75 84.6432 9.1846 85.4168 9.95818C86.1904 10.7318 86.625 11.781 86.625 12.875C86.625 13.969 86.1904 15.0182 85.4168 15.7918C84.6432 16.5654 83.594 17 82.5 17Z" fill="#98DAF4"/>
<path d="M59.675 45.875C58.2478 45.0228 57.0665 43.8143 56.2469 42.368C55.4274 40.9217 54.9977 39.2873 55 37.625H35.75C31.0093 37.625 26.4627 39.5083 23.1105 42.8605C19.7583 46.2127 17.875 50.7593 17.875 55.5H55.0963C55.0291 55.0448 54.9969 54.5851 55 54.125C54.9977 52.4627 55.4274 50.8283 56.2469 49.382C57.0665 47.9357 58.2478 46.7273 59.675 45.875Z" fill="#CE846E"/>
<path d="M62.1913 79.9338C60.8316 79.5795 59.5659 78.9319 58.4832 78.0364C57.4005 77.1409 56.527 76.0191 55.924 74.75H17.875C17.873 76.1951 18.1562 77.6264 18.7083 78.9619C19.2604 80.2974 20.0706 81.5108 21.0924 82.5326C22.1142 83.5545 23.3277 84.3646 24.6631 84.9167C25.9986 85.4688 27.4299 85.752 28.875 85.75H64.625C65.1962 85.7526 65.7666 85.7066 66.33 85.6125C64.2805 84.3126 62.8012 82.2828 62.1913 79.9338Z" fill="#CE846E"/>
<path d="M55.7631 57.8678C55.4385 57.111 55.2143 56.315 55.0963 55.5H27.5L44 63.75L55.7631 57.8678Z" fill="#F5B94C"/>
<path d="M18.8135 69.25C19.5923 70.8949 20.8219 72.2849 22.3595 73.2585C23.8971 74.2322 25.6794 74.7494 27.4994 74.75H55.9234C55.1089 73.0391 54.8217 71.1246 55.0983 69.25H18.8135Z" fill="#5A361F"/>
<path d="M24.7503 26.625C24.2906 26.6231 23.8378 26.7369 23.4336 26.956C23.0295 27.1751 22.687 27.4924 22.4377 27.8787C22.1884 28.265 22.0403 28.7078 22.0071 29.1663C21.974 29.6249 22.0567 30.0844 22.2478 30.5025C22.6018 30.6642 22.9862 30.7486 23.3753 30.75H28.8753C29.3351 30.7519 29.7879 30.6381 30.192 30.419C30.5962 30.1999 30.9387 29.8825 31.188 29.4963C31.4373 29.11 31.5854 28.6672 31.6185 28.2087C31.6517 27.7501 31.5689 27.2906 31.3778 26.8725C31.0239 26.7108 30.6395 26.6264 30.2503 26.625H24.7503Z" fill="#B4B5B9"/>
<path d="M57.4447 7.52762L59.1662 6.66688C60.0436 6.22817 61.011 5.99984 61.9919 6C62.6901 6.00036 63.3596 6.2779 63.8534 6.77163C64.3471 7.26535 64.6246 7.93489 64.625 8.63312C64.625 9.08804 64.5073 9.53522 64.2832 9.93112C64.0591 10.327 63.7363 10.6581 63.3462 10.8922L59.8702 12.9781L55 12.875L57.4447 7.52762Z" fill="#4C94BF"/>
<path d="M59.125 12.875H53.625C52.1062 12.875 50.875 14.1062 50.875 15.625C50.875 17.1438 52.1062 18.375 53.625 18.375H59.125C60.6438 18.375 61.875 17.1438 61.875 15.625C61.875 14.1062 60.6438 12.875 59.125 12.875Z" fill="#9A9B9F"/>
<path d="M53.625 12.875L52.2981 6.24338C52.2663 6.08168 52.2502 5.91729 52.25 5.7525C52.25 5.0888 52.5137 4.45227 52.983 3.98297C53.4523 3.51366 54.0888 3.25 54.7525 3.25H55.2475C55.9112 3.25 56.5477 3.51366 57.017 3.98297C57.4863 4.45227 57.75 5.0888 57.75 5.7525C57.7498 5.91729 57.7337 6.08168 57.7019 6.24338L56.375 12.875" fill="#6FB9DD"/>
<path d="M59.1253 12.875C59.5851 12.8731 60.0379 12.9869 60.442 13.206C60.8462 13.4251 61.1887 13.7424 61.438 14.1287C61.6873 14.515 61.8354 14.9578 61.8685 15.4163C61.9017 15.8749 61.8189 16.3344 61.6278 16.7525C61.2739 16.9142 60.8895 16.9986 60.5003 17H55.0003C54.5406 17.0019 54.0878 16.8881 53.6836 16.669C53.2795 16.4499 52.937 16.1325 52.6877 15.7463C52.4384 15.36 52.2903 14.9172 52.2571 14.4587C52.224 14.0001 52.3067 13.5406 52.4978 13.1225C52.8518 12.9608 53.2362 12.8764 53.6253 12.875H59.1253Z" fill="#B4B5B9"/>
<path d="M72.5697 36.4026L74.2912 35.5419C75.1686 35.1032 76.136 34.8748 77.1169 34.875C77.8151 34.8754 78.4846 35.1529 78.9784 35.6466C79.4721 36.1404 79.7496 36.8099 79.75 37.5081C79.75 37.963 79.6323 38.4102 79.4082 38.8061C79.1841 39.202 78.8613 39.5331 78.4712 39.7672L74.9952 41.8531L70.125 41.75L72.5697 36.4026Z" fill="#4C94BF"/>
<path d="M74.25 41.75H68.75C67.2312 41.75 66 42.9812 66 44.5C66 46.0188 67.2312 47.25 68.75 47.25H74.25C75.7688 47.25 77 46.0188 77 44.5C77 42.9812 75.7688 41.75 74.25 41.75Z" fill="#9A9B9F"/>
<path d="M68.75 41.75L67.4231 35.1184C67.3913 34.9567 67.3752 34.7923 67.375 34.6275C67.375 33.9638 67.6387 33.3273 68.108 32.858C68.5773 32.3887 69.2138 32.125 69.8775 32.125H70.3725C71.0362 32.125 71.6727 32.3887 72.142 32.858C72.6113 33.3273 72.875 33.9638 72.875 34.6275C72.8748 34.7923 72.8587 34.9567 72.8269 35.1184L71.5 41.75" fill="#6FB9DD"/>
<path d="M74.2503 41.75C74.7101 41.7481 75.1629 41.8619 75.567 42.081C75.9712 42.3001 76.3137 42.6174 76.563 43.0037C76.8123 43.39 76.9604 43.8328 76.9935 44.2913C77.0267 44.7499 76.9439 45.2094 76.7528 45.6275C76.3989 45.7892 76.0145 45.8736 75.6253 45.875H70.1253C69.6656 45.8769 69.2128 45.7631 68.8086 45.544C68.4045 45.3249 68.062 45.0075 67.8127 44.6213C67.5634 44.235 67.4153 43.7922 67.3821 43.3337C67.349 42.8751 67.4317 42.4156 67.6228 41.9975C67.9768 41.8358 68.3612 41.7514 68.7503 41.75H74.2503Z" fill="#B4B5B9"/>
<path d="M78.0697 66.6526L79.7912 65.7919C80.6686 65.3532 81.636 65.1248 82.6169 65.125C83.3151 65.1254 83.9846 65.4029 84.4784 65.8966C84.9721 66.3904 85.2496 67.0599 85.25 67.7581C85.25 68.213 85.1323 68.6602 84.9082 69.0561C84.6841 69.452 84.3613 69.7831 83.9712 70.0172L80.4952 72.1031L75.625 72L78.0697 66.6526Z" fill="#4C94BF"/>
<path d="M79.75 72H74.25C72.7312 72 71.5 73.2312 71.5 74.75C71.5 76.2688 72.7312 77.5 74.25 77.5H79.75C81.2688 77.5 82.5 76.2688 82.5 74.75C82.5 73.2312 81.2688 72 79.75 72Z" fill="#9A9B9F"/>
<path d="M74.25 72L72.9231 65.3684C72.8913 65.2067 72.8752 65.0423 72.875 64.8775C72.875 64.2138 73.1387 63.5773 73.608 63.108C74.0773 62.6387 74.7138 62.375 75.3775 62.375H75.8725C76.5362 62.375 77.1727 62.6387 77.642 63.108C78.1113 63.5773 78.375 64.2138 78.375 64.8775C78.3748 65.0423 78.3587 65.2067 78.3269 65.3684L77 72" fill="#6FB9DD"/>
<path d="M79.7503 72C80.2101 71.9981 80.6629 72.1119 81.067 72.331C81.4712 72.5501 81.8137 72.8674 82.063 73.2537C82.3123 73.64 82.4604 74.0828 82.4935 74.5413C82.5267 74.9999 82.4439 75.4594 82.2528 75.8775C81.8989 76.0392 81.5145 76.1236 81.1253 76.125H75.6253C75.1656 76.1269 74.7128 76.0131 74.3086 75.794C73.9045 75.5749 73.562 75.2575 73.3127 74.8713C73.0634 74.485 72.9153 74.0422 72.8821 73.5837C72.849 73.1251 72.9317 72.6656 73.1228 72.2475C73.4768 72.0858 73.8612 72.0014 74.2503 72H79.7503Z" fill="#B4B5B9"/>
<path d="M26.125 41.75H28.875V44.5H26.125V41.75Z" fill="#B26E56"/>
<path d="M42.625 41.75H45.375V44.5H42.625V41.75Z" fill="#B26E56"/>
<path d="M34.375 45.875H37.125V48.625H34.375V45.875Z" fill="#B26E56"/>
<path d="M50.875 45.875H53.625V48.625H50.875V45.875Z" fill="#B26E56"/>
</svg>
